<svg width="64" height="64" viewBox="0 0 64 64" fill="none" xmlns="http://www.w3.org/2000/svg">
<g clip-path="url(#clip0_3_55)">
<path d="M0.0876465 0L63.713 0V64H0.0876465V0Z" fill="#2A0634"/>
<path d="M0.0876465 0V64H63.713V0L0.0876465 0ZM61.2276 61.5H2.57301V2.5L61.2276 2.5V61.5Z" fill="#E976B9"/>
<path d="M34.3856 23.5499C34.3359 18.8499 30.5085 15.0999 25.836 15.1499H16.6401V44.3999H21.412V33.7499H25.5377C30.4091 33.6999 34.3856 29.6499 34.3856 24.6999V23.5499ZM29.6137 25.0499C29.6137 27.5499 27.5757 29.5999 25.0904 29.5999H21.412V19.2499H25.0904C27.5757 19.2499 29.6137 21.2999 29.6137 23.7999V25.0499ZM38.4119 44.3999V24.4499C38.4119 24.4499 43.4821 21.8999 48.4528 22.5499V26.6999C48.4528 26.6999 44.9733 26.6999 43.4324 27.3499V44.4499H38.4119V44.3999Z" fill="#E976B9"/>
</g>
<defs>
<clipPath id="clip0_3_55">
<rect width="63.6253" height="64" fill="white" transform="translate(0.0876465)"/>
</clipPath>
</defs>
</svg>
