<svg width="60" height="69" viewBox="0 0 60 69" fill="none" xmlns="http://www.w3.org/2000/svg">
<path d="M47.625 14.1162C45.333 11.4537 42.603 9.34272 39.5941 7.90632C36.5852 6.46993 33.3578 5.73688 30.1 5.74993C16.45 5.74993 5.325 18.5437 5.325 34.2412C5.325 39.2724 6.475 44.1599 8.625 48.4724L5.125 63.2499L18.25 59.2824C21.875 61.5537 25.95 62.7612 30.1 62.7612C43.75 62.7612 54.875 49.9674 54.875 34.2699C54.875 26.6512 52.3 19.4924 47.625 14.1162ZM30.1 57.9312C26.4 57.9312 22.775 56.7812 19.6 54.6249L18.85 54.1074L11.05 56.4649L13.125 47.7249L12.625 46.8337C10.5694 43.0587 9.47785 38.6952 9.475 34.2412C9.475 21.1887 18.725 10.5512 30.075 10.5512C35.575 10.5512 40.75 13.0237 44.625 17.5087C46.5437 19.7051 48.0642 22.3176 49.0985 25.1948C50.1327 28.072 50.6601 31.1566 50.65 34.2699C50.7 47.3224 41.45 57.9312 30.1 57.9312ZM41.4 40.2212C40.775 39.8762 37.725 38.1512 37.175 37.8924C36.6 37.6624 36.2 37.5474 35.775 38.2374C35.35 38.9562 34.175 40.5662 33.825 41.0262C33.475 41.5149 33.1 41.5724 32.475 41.1987C31.85 40.8537 29.85 40.0774 27.5 37.6624C25.65 35.7649 24.425 33.4362 24.05 32.7174C23.7 31.9987 24 31.6249 24.325 31.2512C24.6 30.9349 24.95 30.4174 25.25 30.0149C25.55 29.6124 25.675 29.2962 25.875 28.8362C26.075 28.3474 25.975 27.9449 25.825 27.5999C25.675 27.2549 24.425 23.7474 23.925 22.3099C23.425 20.9299 22.9 21.1024 22.525 21.0737H21.325C20.9 21.0737 20.25 21.2462 19.675 21.9649C19.125 22.6837 17.525 24.4087 17.525 27.9162C17.525 31.4237 19.75 34.8162 20.05 35.2762C20.35 35.7649 24.425 42.9524 30.625 46.0287C32.1 46.7762 33.25 47.2074 34.15 47.5237C35.625 48.0699 36.975 47.9837 38.05 47.8112C39.25 47.6099 41.725 46.0862 42.225 44.4187C42.75 42.7512 42.75 41.3424 42.575 41.0262C42.4 40.7099 42.025 40.5662 41.4 40.2212Z" fill="white"/>
</svg>
