<svg width="145" height="142" viewBox="0 0 145 142" fill="none" xmlns="http://www.w3.org/2000/svg">
<path d="M72.5 93.1875C82.5102 93.1875 90.625 85.2406 90.625 75.4375C90.625 65.6344 82.5102 57.6875 72.5 57.6875C62.4898 57.6875 54.375 65.6344 54.375 75.4375C54.375 85.2406 62.4898 93.1875 72.5 93.1875Z" fill="#85B6FF"/>
<path d="M129.141 39.9375H105.635C104.785 39.9375 103.732 39.3995 102.91 38.5508L95.1846 26.6805C92.041 22.1875 90.625 22.1875 85.5273 22.1875H59.4727C54.375 22.1875 52.6758 22.1875 49.8239 26.6832L42.0896 38.5508C41.4609 39.222 40.5773 39.9375 39.6484 39.9375V35.5C39.6484 34.9116 39.4097 34.3472 38.9849 33.9311C38.56 33.515 37.9837 33.2812 37.3828 33.2812H26.0547C25.4538 33.2812 24.8775 33.515 24.4526 33.9311C24.0278 34.3472 23.7891 34.9116 23.7891 35.5V39.9375H15.8594C14.0567 39.9375 12.3279 40.6388 11.0533 41.8871C9.7786 43.1354 9.0625 44.8284 9.0625 46.5938V113.156C9.0625 114.922 9.7786 116.615 11.0533 117.863C12.3279 119.111 14.0567 119.812 15.8594 119.812H129.141C130.943 119.812 132.672 119.111 133.947 117.863C135.221 116.615 135.938 114.922 135.938 113.156V46.5938C135.938 44.8284 135.221 43.1354 133.947 41.8871C132.672 40.6388 130.943 39.9375 129.141 39.9375ZM73.7772 102.035C68.2974 102.287 62.8678 100.91 58.202 98.0839C53.5362 95.2582 49.8524 91.1163 47.6347 86.2025C45.417 81.2886 44.7691 75.8327 45.7761 70.5516C46.7832 65.2705 49.398 60.4112 53.2772 56.6124C57.1563 52.8135 62.1182 50.2527 67.5109 49.2665C72.9035 48.2803 78.4747 48.9148 83.4924 51.0867C88.51 53.2585 92.7394 56.8661 95.6248 61.4353C98.5102 66.0046 99.9166 71.3218 99.6592 76.6883C99.3346 83.3081 96.5036 89.572 91.7183 94.2582C86.9331 98.9445 80.5368 101.717 73.7772 102.035Z" fill="#85B6FF"/>
</svg>
