<svg width="60" height="69" viewBox="0 0 60 69" fill="none" xmlns="http://www.w3.org/2000/svg">
<g clip-path="url(#clip0_1_29)">
<path d="M11.4851 14.3289C11.9377 14.2684 12.3961 14.3513 12.8108 14.5687C13.2254 14.7861 13.5805 15.1297 13.8376 15.5623C17.5276 21.7694 21.9576 24.3512 26.8751 24.9377C27.1151 22.5198 27.6826 20.1307 28.7501 18.0262C30.3151 14.9384 32.8601 12.6672 36.4951 11.8277C41.5201 10.6662 45.3451 12.7592 47.5626 15.3208L52.0426 14.3577C52.5114 14.2566 52.9956 14.312 53.4379 14.5171C53.8803 14.7222 54.2624 15.0685 54.5391 15.5153C54.8159 15.962 54.9757 16.4904 54.9998 17.0382C55.0239 17.5861 54.9113 18.1304 54.6751 18.6069L50.3751 27.2952C50.7676 39.833 47.7376 48.5845 41.2776 54.6134C37.8526 57.8104 32.9476 59.6245 27.5651 60.1852C22.1401 60.7487 16.0076 60.0673 9.91261 58.0203C9.39184 57.8456 8.93461 57.4809 8.60992 56.9811C8.28524 56.4813 8.11071 55.8737 8.11269 55.2498C8.11466 54.626 8.29303 54.0198 8.62088 53.5228C8.94872 53.0258 9.40825 52.6649 9.93011 52.4945C12.9951 51.4912 15.3301 50.6258 17.4376 49.1107C14.4401 47.2822 12.2326 44.8902 10.6701 42.1647C8.50011 38.3754 7.69511 34.1492 7.53511 30.3398C7.37511 26.5304 7.85261 22.9999 8.35761 20.4555C8.64511 19.0037 8.98011 17.5489 9.44261 16.1574C9.60575 15.6669 9.8826 15.2372 10.2431 14.9148C10.6036 14.5925 11.0315 14.3898 11.4851 14.3289Z" fill="white"/>
</g>
<defs>
<clipPath id="clip0_1_29">
<rect width="60" height="69" fill="white"/>
</clipPath>
</defs>
</svg>
