<svg width="100" height="100" viewBox="0 0 100 100" fill="none" xmlns="http://www.w3.org/2000/svg">
<path d="M84.375 14.0625H15.625C13.553 14.0625 11.5659 14.8856 10.1007 16.3507C8.6356 17.8159 7.8125 19.803 7.8125 21.875V62.5C7.8125 64.572 8.6356 66.5591 10.1007 68.0243C11.5659 69.4894 13.553 70.3125 15.625 70.3125H84.375C86.447 70.3125 88.4341 69.4894 89.8993 68.0243C91.3644 66.5591 92.1875 64.572 92.1875 62.5V21.875C92.1875 19.803 91.3644 17.8159 89.8993 16.3507C88.4341 14.8856 86.447 14.0625 84.375 14.0625ZM82.8125 60.9375H17.1875V23.4375H82.8125V60.9375ZM92.1875 81.25C92.1875 82.4932 91.6936 83.6855 90.8146 84.5646C89.9355 85.4436 88.7432 85.9375 87.5 85.9375H12.5C11.2568 85.9375 10.0645 85.4436 9.18544 84.5646C8.30636 83.6855 7.8125 82.4932 7.8125 81.25C7.8125 80.0068 8.30636 78.8145 9.18544 77.9354C10.0645 77.0564 11.2568 76.5625 12.5 76.5625H87.5C88.7432 76.5625 89.9355 77.0564 90.8146 77.9354C91.6936 78.8145 92.1875 80.0068 92.1875 81.25ZM40.625 50V34.375C40.6247 33.5381 40.8485 32.7164 41.2731 31.9953C41.6977 31.2741 42.3076 30.6797 43.0395 30.2739C43.7714 29.8681 44.5986 29.6656 45.4351 29.6875C46.2717 29.7094 47.0872 29.9549 47.7969 30.3984L60.2969 38.2109C60.9717 38.6321 61.5283 39.2182 61.9142 39.9139C62.3001 40.6095 62.5025 41.392 62.5025 42.1875C62.5025 42.983 62.3001 43.7655 61.9142 44.4611C61.5283 45.1568 60.9717 45.7429 60.2969 46.1641L47.7969 53.9766C47.0872 54.4201 46.2717 54.6656 45.4351 54.6875C44.5986 54.7094 43.7714 54.5069 43.0395 54.1011C42.3076 53.6953 41.6977 53.1009 41.2731 52.3797C40.8485 51.6586 40.6247 50.8369 40.625 50Z" fill="black"/>
</svg>
