<svg width="100" height="100" viewBox="0 0 100 100" fill="none" xmlns="http://www.w3.org/2000/svg">
<path d="M50 25.8938C26.4188 25.8938 7.8125 50 7.8125 50C7.8125 50 26.4188 74.1094 50 74.1094C68.0312 74.1094 92.1875 50 92.1875 50C92.1875 50 68.0312 25.8938 50 25.8938ZM50 65.0188C41.7188 65.0188 34.9781 58.2813 34.9781 50C34.9781 41.7188 41.7188 34.9782 50 34.9782C58.2812 34.9782 65.0219 41.7188 65.0219 50C65.0219 58.2813 58.2812 65.0188 50 65.0188ZM50 41.2313C48.8347 41.2093 47.6768 41.4198 46.5938 41.8505C45.5109 42.2812 44.5247 42.9235 43.6928 43.7398C42.861 44.5561 42.2002 45.53 41.7491 46.6046C41.298 47.6793 41.0657 48.833 41.0657 49.9985C41.0657 51.1639 41.298 52.3177 41.7491 53.3923C42.2002 54.467 42.861 55.4409 43.6928 56.2572C44.5247 57.0735 45.5109 57.7157 46.5938 58.1465C47.6768 58.5772 48.8347 58.7877 50 58.7657C52.2965 58.7223 54.4844 57.7796 56.0932 56.1401C57.7019 54.5007 58.6032 52.2954 58.6032 49.9985C58.6032 47.7015 57.7019 45.4963 56.0932 43.8568C54.4844 42.2174 52.2965 41.2747 50 41.2313Z" fill="black"/>
</svg>
