<svg width="60" height="69" viewBox="0 0 60 69" fill="none" xmlns="http://www.w3.org/2000/svg">
<path d="M32.57 5.75C35.3825 5.75862 36.81 5.77588 38.0425 5.81613L38.5275 5.83625C39.0875 5.85925 39.64 5.888 40.3075 5.9225C42.9675 6.06625 44.7825 6.54925 46.375 7.25938C48.025 7.98963 49.415 8.97862 50.805 10.5742C52.0762 12.0115 53.0599 13.7499 53.6875 15.6687C54.305 17.5001 54.725 19.5874 54.85 22.6493C54.88 23.414 54.905 24.0494 54.925 24.6963L54.94 25.254C54.9775 26.6685 54.9925 28.3101 54.9975 31.5445L55 33.6893V37.4555C55.0061 39.5525 54.9869 41.6496 54.9425 43.746L54.9275 44.3037C54.9075 44.9506 54.8825 45.586 54.8525 46.3507C54.7275 49.4126 54.3025 51.497 53.6875 53.3312C53.0617 55.2511 52.0778 56.99 50.805 58.4258C49.5549 59.8872 48.0433 61.0183 46.375 61.7406C44.7825 62.4508 42.9675 62.9338 40.3075 63.0775C39.7143 63.1096 39.1209 63.1384 38.5275 63.1637L38.0425 63.181C36.81 63.2212 35.3825 63.2414 32.57 63.2471L30.705 63.25H27.4325C25.6081 63.2572 23.7838 63.2352 21.96 63.1839L21.475 63.1666C20.8815 63.1408 20.2882 63.1111 19.695 63.0775C17.035 62.9338 15.22 62.4508 13.625 61.7406C11.9567 61.0201 10.4455 59.8887 9.19748 58.4258C7.92509 56.9891 6.94054 55.2505 6.31248 53.3312C5.69498 51.4999 5.27498 49.4126 5.14998 46.3507C5.12212 45.6686 5.09712 44.9862 5.07498 44.3037L5.06248 43.746C5.01641 41.6496 4.99557 39.5526 4.99998 37.4555V31.5445C4.993 29.4475 5.01134 27.3504 5.05498 25.254L5.07248 24.6963C5.09248 24.0494 5.11748 23.414 5.14748 22.6493C5.27248 19.5874 5.69248 17.503 6.30998 15.6687C6.93776 13.748 7.92428 12.0089 9.19998 10.5742C10.4477 9.11224 11.9578 7.98096 13.625 7.25938C15.22 6.54925 17.0325 6.06625 19.695 5.9225C20.36 5.888 20.915 5.85925 21.475 5.83625L21.96 5.819C23.783 5.76792 25.6065 5.74588 27.43 5.75287L32.57 5.75ZM30 20.125C26.6848 20.125 23.5053 21.6395 21.1611 24.3353C18.8169 27.0312 17.5 30.6875 17.5 34.5C17.5 38.3125 18.8169 41.9688 21.1611 44.6647C23.5053 47.3605 26.6848 48.875 30 48.875C33.3152 48.875 36.4946 47.3605 38.8388 44.6647C41.183 41.9688 42.5 38.3125 42.5 34.5C42.5 30.6875 41.183 27.0312 38.8388 24.3353C36.4946 21.6395 33.3152 20.125 30 20.125ZM30 25.875C30.9849 25.8748 31.9602 26.0977 32.8702 26.531C33.7802 26.9643 34.6071 27.5994 35.3036 28.4002C36.0002 29.201 36.5528 30.1517 36.9298 31.198C37.3069 32.2444 37.5011 33.3659 37.5012 34.4986C37.5014 35.6312 37.3076 36.7528 36.9308 37.7993C36.554 38.8458 36.0017 39.7967 35.3054 40.5978C34.6091 41.3988 33.7824 42.0343 32.8725 42.4679C31.9626 42.9015 30.9874 43.1248 30.0025 43.125C28.0134 43.125 26.1057 42.2163 24.6992 40.5988C23.2927 38.9813 22.5025 36.7875 22.5025 34.5C22.5025 32.2125 23.2927 30.0187 24.6992 28.4012C26.1057 26.7837 28.0134 25.875 30.0025 25.875M43.1275 15.8125C42.2987 15.8125 41.5038 16.1911 40.9178 16.8651C40.3317 17.539 40.0025 18.4531 40.0025 19.4062C40.0025 20.3594 40.3317 21.2735 40.9178 21.9474C41.5038 22.6214 42.2987 23 43.1275 23C43.9563 23 44.7511 22.6214 45.3372 21.9474C45.9232 21.2735 46.2525 20.3594 46.2525 19.4062C46.2525 18.4531 45.9232 17.539 45.3372 16.8651C44.7511 16.1911 43.9563 15.8125 43.1275 15.8125Z" fill="white"/>
</svg>
