<svg width="25" height="30" viewBox="0 0 25 30" fill="none" xmlns="http://www.w3.org/2000/svg">
<path fill-rule="evenodd" clip-rule="evenodd" d="M23.9961 3.27528C24.1378 3.09734 24.2503 2.88605 24.327 2.65348C24.4038 2.4209 24.4433 2.1716 24.4435 1.91979C24.4436 1.66799 24.4043 1.41863 24.3277 1.18593C24.2512 0.95324 24.139 0.741776 23.9975 0.563616C23.8559 0.385456 23.6879 0.244089 23.5029 0.147586C23.318 0.0510826 23.1197 0.00133335 22.9194 0.00117858C22.7192 0.00102382 22.5208 0.0504666 22.3358 0.146684C22.1507 0.242901 21.9825 0.384008 21.8408 0.561949L12.6443 12.1253L3.45047 0.561949C3.1643 0.202139 2.77618 -3.79122e-09 2.37149 0C1.96679 3.79122e-09 1.57867 0.202139 1.29251 0.561949C1.00635 0.92176 0.845581 1.40977 0.845581 1.91862C0.845581 2.42746 1.00635 2.91547 1.29251 3.27528L10.489 14.8353L1.29251 26.3953C1.15082 26.5734 1.03842 26.7849 0.961734 27.0177C0.88505 27.2505 0.845581 27.5 0.845581 27.7519C0.845581 28.0039 0.88505 28.2534 0.961734 28.4862C1.03842 28.7189 1.15082 28.9305 1.29251 29.1086C1.57867 29.4684 1.96679 29.6706 2.37149 29.6706C2.57187 29.6706 2.7703 29.6209 2.95543 29.5245C3.14056 29.4281 3.30877 29.2868 3.45047 29.1086L12.6443 17.5453L21.8408 29.1086C22.127 29.468 22.515 29.6697 22.9194 29.6694C23.3239 29.6691 23.7117 29.4668 23.9975 29.1069C24.2833 28.7471 24.4437 28.2593 24.4435 27.7508C24.4432 27.2422 24.2823 26.7547 23.9961 26.3953L14.7996 14.8353L23.9961 3.27528Z" fill="white"/>
</svg>
